#N canvas 522 287 508 371 10;
#N canvas 32 508 549 259 CORE 0;
#N canvas 36 362 318 353 FROM_CHUCK 0;
#X obj 25 17 loadbang;
#X msg 25 58 listen 3000;
#X obj 25 119 netreceive -u -b;
#X obj 25 140 oscparse;
#X obj 25 221 route ChucK;
#X obj 25 161 list trim;
#N canvas 241 135 497 300 VALUE 0;
#X obj 33 137 list split 1;
#X obj 33 250 s;
#X obj 33 158 t b a;
#X obj 80 189 makefilename to_%s;
#X obj 33 42 inlet;
#X obj 33 189 list;
#X obj 33 117 route value value_passive;
#X obj 223 137 list split 1;
#X obj 223 250 s;
#X obj 223 158 t b a;
#X obj 270 189 makefilename to_%s;
#X obj 223 189 list;
#X obj 223 210 list prepend set;
#X obj 223 231 list trim;
#X text 112 6 set GUI objects value \; \; values can be set in 2 ways
\; 1 the object then sends the value back via OSC \; 2 passive way
where the object doesn't send the value just received \;;
#X connect 0 0 2 0;
#X connect 0 1 5 1;
#X connect 2 0 5 0;
#X connect 2 1 3 0;
#X connect 3 0 1 1;
#X connect 4 0 6 0;
#X connect 5 0 1 0;
#X connect 6 0 0 0;
#X connect 6 1 7 0;
#X connect 7 0 9 0;
#X connect 7 1 11 1;
#X connect 9 0 11 0;
#X connect 9 1 10 0;
#X connect 10 0 8 1;
#X connect 11 0 12 0;
#X connect 12 0 13 0;
#X connect 13 0 8 0;
#X restore 25 270 pd VALUE;
#N canvas 417 53 863 531 CREATE 0;
#X obj 33 42 inlet;
#X obj 33 97 route create;
#X text 128 54 create msg structure \; xpos \, ypos \, object \, name
\, rangemin \, rangemax \;;
#X obj 237 146 list split 1;
#X obj 185 386 text insert OBJECTS;
#X msg 240 344 1;
#X obj 33 208 list prepend obj;
#X obj 33 229 list trim;
#X obj 237 218 sel -1;
#X obj 532 204 spigot;
#X obj 33 169 spigot;
#X obj 237 116 list split 3;
#X msg 267 239 0;
#X msg 237 239 1;
#X obj 185 239 t a b;
#X obj 237 198 text search OBJECTS 3;
#X obj 565 153 sel -1;
#X msg 595 174 0;
#X msg 565 174 1;
#X text 648 86 check if xpos and ypos \; are already used \;;
#X text 320 111 avoid creating objects \; with the same name \;;
#X obj 565 91 list split 2;
#X obj 565 133 text search OBJECTS;
#X obj 185 318 spigot;
#X obj 33 118 t a a a;
#X obj 237 167 t l l;
#X obj 72 289 s pd-GUI.pd;
#X obj 52 311 s update_GUI;
#X msg 363 359 menusave;
#X obj 363 390 s pd-GUI.pd;
#X obj 33 250 t b b a;
#X text 445 356 automatically save the patch \; when a new GUI obj
has been created \;;
#X connect 0 0 1 0;
#X connect 1 0 24 0;
#X connect 3 0 25 0;
#X connect 5 0 4 1;
#X connect 6 0 7 0;
#X connect 7 0 30 0;
#X connect 8 0 13 0;
#X connect 8 1 12 0;
#X connect 10 0 6 0;
#X connect 11 1 3 0;
#X connect 12 0 10 1;
#X connect 12 0 23 1;
#X connect 13 0 10 1;
#X connect 13 0 23 1;
#X connect 14 0 23 0;
#X connect 14 1 5 0;
#X connect 15 0 8 0;
#X connect 16 0 18 0;
#X connect 16 1 17 0;
#X connect 17 0 9 1;
#X connect 18 0 9 1;
#X connect 21 0 22 0;
#X connect 22 0 16 0;
#X connect 23 0 4 0;
#X connect 24 0 10 0;
#X connect 24 1 14 0;
#X connect 24 2 11 0;
#X connect 25 0 15 0;
#X connect 28 0 29 0;
#X connect 30 0 28 0;
#X connect 30 1 27 0;
#X connect 30 2 26 0;
#X restore 95 270 pd CREATE;
#X obj 162 154 print from_ChucK;
#X msg 35 78 listen 0;
#X obj 25 182 t a a;
#X obj 162 120 spigot;
#X obj 195 72 r \$0_DEBUG;
#X obj 195 93 tgl 15 0 empty empty empty 17 7 0 10 -262144 -1 -1 0
1;
#X connect 0 0 1 0;
#X connect 1 0 2 0;
#X connect 2 0 3 0;
#X connect 3 0 5 0;
#X connect 4 0 6 0;
#X connect 4 0 7 0;
#X connect 5 0 10 0;
#X connect 9 0 2 0;
#X connect 10 0 11 0;
#X connect 10 1 4 0;
#X connect 11 0 8 0;
#X connect 12 0 13 0;
#X connect 13 0 11 1;
#X restore 61 99 pd FROM_CHUCK;
#X msg 239 71 clear;
#X obj 239 100 text define -k OBJECTS;
#A set;
#N canvas 0 23 450 338 TO_CHUCK 0;
#X obj 27 25 r to_ChucK;
#X obj 27 46 route list;
#X obj 27 67 route value;
#X obj 259 179 netsend -u -b;
#X msg 209 78 connect localhost 3001;
#X msg 219 98 disconnect;
#X obj 209 19 loadbang;
#X obj 27 148 oscformat value;
#X obj 27 169 list prepend send;
#X obj 27 190 list trim;
#X obj 27 88 list;
#X obj 27 211 s \$0_to_osc_out;
#X obj 259 150 r \$0_to_osc_out;
#X obj 207 263 spigot;
#X obj 207 284 print TO_CHUCK;
#X obj 240 221 r \$0_DEBUG;
#X obj 240 242 tgl 15 0 empty empty empty 17 7 0 10 -262144 -1 -1 0
1;
#X obj 27 109 t a a;
#X connect 0 0 1 0;
#X connect 1 0 2 0;
#X connect 2 0 10 0;
#X connect 4 0 3 0;
#X connect 5 0 3 0;
#X connect 6 0 4 0;
#X connect 7 0 8 0;
#X connect 8 0 9 0;
#X connect 9 0 11 0;
#X connect 10 0 17 0;
#X connect 12 0 3 0;
#X connect 13 0 14 0;
#X connect 15 0 16 0;
#X connect 16 0 13 1;
#X connect 17 0 13 0;
#X connect 17 1 7 0;
#X restore 61 124 pd TO_CHUCK;
#X obj 240 16 tgl 15 0 empty empty empty 17 7 0 10 -262144 -1 -1 0
1;
#X obj 240 36 s \$0_DEBUG;
#X text 259 14 print OSC msg;
#X text 237 122 this contains info about all the GUI obj \; at the
moment is only used to prevent \; from creating objects with the same
name \; smarter checks can be implemented to avoid \; to prevent from
having 2 objects with the \; same coordinates \; if objects are manually
deleted \, they should \; also be removed from OBJECTS text file \;
;
#X connect 1 0 2 0;
#X connect 4 0 5 0;
#X restore 10 7 pd CORE;
