#N canvas 127 191 868 300 10;
#X obj 105 104 hsl 128 15 0 127 0 0 empty empty \$1 5 8 0 10 -262144
-1 -1 6000 0;
#X obj 102 10 r to_\$1;
#X text 471 36 ARGS \; \; 1 object name \; 2 range min \; 3 range max
\;;
#X msg 213 66 set \$1;
#X floatatom 237 104 5 0 0 0 - - -;
#X msg 236 124 set \$1;
#X obj 102 196 s to_ChucK;
#X obj 102 151 list prepend value \$1;
#X obj 324 31 r update_GUI;
#X obj 324 52 t b b;
#X obj 324 73 \$2;
#X obj 354 73 \$3;
#X obj 324 104 pack;
#X msg 324 125 range \$1 \$2;
#X obj 324 146 s to_\$1;
#X obj 102 31 route set;
#X msg 102 52 set \$1;
#X connect 0 0 3 0;
#X connect 0 0 7 0;
#X connect 1 0 15 0;
#X connect 3 0 4 0;
#X connect 4 0 5 0;
#X connect 4 0 6 0;
#X connect 5 0 0 0;
#X connect 7 0 6 0;
#X connect 8 0 9 0;
#X connect 9 0 10 0;
#X connect 9 1 11 0;
#X connect 10 0 12 0;
#X connect 11 0 12 1;
#X connect 12 0 13 0;
#X connect 13 0 14 0;
#X connect 15 0 16 0;
#X connect 15 1 0 0;
#X connect 16 0 4 0;
#X connect 16 0 0 0;
#X coords 0 -1 1 1 170 23 2 100 100;
