#N canvas 239 113 450 300 10;
#X text 448 37 ARGS \; \; 1 object name \; 2 range min \; 3 range max
\;;
#X floatatom 103 142 5 0 0 0 - - -;
#X msg 194 210 set \$1;
#X msg 184 103 set \$1;
#X obj 103 226 list prepend value \$1;
#X obj 103 247 s to_ChucK;
#X obj 311 45 t b b;
#X obj 311 25 r update_GUI;
#X obj 311 66 \$2;
#X obj 341 66 \$3;
#X obj 311 87 pack;
#X msg 311 108 range \$1 \$2;
#X obj 311 129 s to_\$1;
#X obj 103 112 moonlib/mknob 25 100 20 1500 0 0 empty empty \$1 -2
-6 0 8 -262144 -1 -1 0 1;
#X obj 103 17 r to_\$1;
#X obj 103 38 route set;
#X msg 65 69 set \$1;
#X connect 1 0 2 0;
#X connect 1 0 4 0;
#X connect 2 0 13 0;
#X connect 3 0 1 0;
#X connect 4 0 5 0;
#X connect 6 0 8 0;
#X connect 6 1 9 0;
#X connect 7 0 6 0;
#X connect 8 0 10 0;
#X connect 9 0 10 1;
#X connect 10 0 11 0;
#X connect 11 0 12 0;
#X connect 13 0 4 0;
#X connect 13 0 3 0;
#X connect 14 0 15 0;
#X connect 15 0 16 0;
#X connect 15 1 13 0;
#X connect 16 0 13 0;
#X connect 16 0 1 0;
#X coords 0 -1 1 1 50 60 2 100 100;
