#N canvas 0 23 672 427 10;
#X obj 103 16 r to_\$1;
#X obj 103 106 vsl 15 128 -100 100 0 0 empty empty \$1 18 0 0 10 -262144
-1 -1 0 0;
#X text 448 57 ARGS \; \; 1 object name \; 2 range min \; 3 range max
\;;
#X floatatom 123 222 5 0 0 0 - - -;
#X msg 194 230 set \$1;
#X msg 184 123 set \$1;
#X obj 103 246 list prepend value \$1;
#X obj 103 267 s to_ChucK;
#X obj 311 65 t b b;
#X obj 311 45 r update_GUI;
#X obj 311 86 \$2;
#X obj 341 86 \$3;
#X obj 311 107 pack;
#X msg 311 128 range \$1 \$2;
#X obj 311 149 s to_\$1;
#X obj 103 37 route set;
#X msg 103 58 set \$1;
#X connect 0 0 15 0;
#X connect 1 0 5 0;
#X connect 1 0 6 0;
#X connect 3 0 4 0;
#X connect 3 0 6 0;
#X connect 4 0 1 0;
#X connect 5 0 3 0;
#X connect 6 0 7 0;
#X connect 8 0 10 0;
#X connect 8 1 11 0;
#X connect 9 0 8 0;
#X connect 10 0 12 0;
#X connect 11 0 12 1;
#X connect 12 0 13 0;
#X connect 13 0 14 0;
#X connect 15 0 16 0;
#X connect 15 1 1 0;
#X connect 16 0 1 0;
#X connect 16 0 3 0;
#X coords 0 -1 1 1 70 140 2 100 100;
