#N canvas 556 188 346 164 10;
#N canvas 216 94 838 525 CORE 0;
#X obj 92 219 netreceive -u -b;
#X msg 92 169 listen 3000;
#X obj 92 242 oscparse;
#X obj 92 288 route sysex;
#X obj 152 10 loadbang;
#X obj 92 265 list trim;
#X obj 261 302 list prepend send;
#X obj 261 325 list trim;
#X obj 261 348 netsend -u -b;
#X obj 261 244 list tosymbol;
#X obj 261 279 oscformat sysex;
#X msg 395 248 disconnect;
#X msg 373 227 connect localhost 3001;
#X obj 642 32 r \$0_selectMidiDevice;
#X msg 642 55 midi-properties;
#X obj 642 78 s pd;
#N canvas 0 23 450 300 SYSEX_TO_LIST 0;
#X obj 160 164 list prepend;
#X obj 160 187 t a a;
#X obj 137 217 list;
#X obj 187 136 sel 240;
#X obj 137 94 t f f f;
#X obj 137 136 sel 247;
#X obj 137 250 outlet;
#X obj 137 54 sysexin;
#X msg 277 31 240 1 2 3 4 5 6 247;
#X obj 277 54 cyclone/iter 1;
#X connect 0 0 1 0;
#X connect 1 0 2 1;
#X connect 1 1 0 1;
#X connect 2 0 6 0;
#X connect 3 0 0 1;
#X connect 4 0 5 0;
#X connect 4 1 0 0;
#X connect 4 2 3 0;
#X connect 5 0 2 0;
#X connect 7 0 4 0;
#X connect 8 0 9 0;
#X connect 9 0 4 0;
#X restore 261 178 pd SYSEX_TO_LIST;
#X text 273 33 IN_PORT (from ChucK): 3000 \; OUT_PORT (to ChucK): 3001
\;;
#X msg 103 189 listen 0;
#X obj 161 67 r \$0_resetOSC;
#X obj 161 89 t b b;
#X obj 161 112 delay 500;
#X obj 116 449 print from_ChucK:;
#X obj 116 429 spigot;
#X obj 226 429 spigot;
#X obj 226 449 print to_ChucK:;
#X obj 177 392 tgl 15 0 empty empty empty 17 7 0 10 -262144 -1 -1 0
1;
#X obj 92 369 midiout;
#X obj 92 343 list;
#X obj 92 311 t a a;
#X obj 261 201 t a a;
#X obj 177 361 r \$0_print;
#X connect 0 0 2 0;
#X connect 1 0 0 0;
#X connect 2 0 5 0;
#X connect 3 0 29 0;
#X connect 4 0 1 0;
#X connect 4 0 12 0;
#X connect 5 0 3 0;
#X connect 6 0 7 0;
#X connect 7 0 8 0;
#X connect 9 0 10 0;
#X connect 10 0 6 0;
#X connect 11 0 8 0;
#X connect 12 0 8 0;
#X connect 13 0 14 0;
#X connect 14 0 15 0;
#X connect 16 0 30 0;
#X connect 18 0 0 0;
#X connect 19 0 20 0;
#X connect 20 0 21 0;
#X connect 20 1 11 0;
#X connect 20 1 18 0;
#X connect 21 0 1 0;
#X connect 21 0 12 0;
#X connect 23 0 22 0;
#X connect 24 0 25 0;
#X connect 26 0 23 1;
#X connect 26 0 24 1;
#X connect 28 0 27 0;
#X connect 29 0 23 0;
#X connect 29 1 28 0;
#X connect 30 0 24 0;
#X connect 30 1 9 0;
#X connect 31 0 26 0;
#X restore 23 129 pd CORE;
#X obj 23 49 bng 15 250 50 0 \$0_selectMidiDevice empty selectMidiDevice
17 7 0 10 -260097 -1 -1;
#X obj 23 69 bng 15 250 50 0 \$0_resetOSC empty reset_OSC 17 7 0 10
-258113 -1 -1;
#X text 159 57 Allows ChucK to \; send/receive SysEx \; messages \;
\; 2018 - Mario Buoninfante \;;
#X obj 23 94 tgl 15 0 \$0_print empty print_recv/sent 17 7 0 10 -262144
-1 -1 0 1;
